REM DIRINDEX 1\3,1\2\4,1\2\5,1\2\6
REM DIRNAME cjc137,folder01,folder02,folder03,folder04,folder05
TITLE ""
FILE "123.mp3" MP3
  TRACK 01 AUDIO
    TITLE "4:cjc137_5085"
    INDEX 01 00:00:00
  TRACK 02 AUDIO
    TITLE "0:"
    INDEX 01 00:01:26
  TRACK 03 AUDIO
    TITLE "6:cjc137_5086"
    INDEX 01 00:01:36
  TRACK 04 AUDIO
    TITLE "0:"
    INDEX 01 00:02:57
  TRACK 05 AUDIO
    TITLE "5:cjc137_5087"
    INDEX 01 00:02:61
  TRACK 06 AUDIO
    TITLE "0:"
    INDEX 01 00:04:11
  TRACK 07 AUDIO
    TITLE "4:cjc137_5088"
    INDEX 01 00:05:24
  TRACK 08 AUDIO
    TITLE "0:"
    INDEX 01 00:06:30
  TRACK 09 AUDIO
    TITLE "6:cjc137_5089"
    INDEX 01 00:06:33
  TRACK 10 AUDIO
    TITLE "0:"
    INDEX 01 00:07:56
  TRACK 11 AUDIO
    TITLE "5:cjc137_5090"
    INDEX 01 00:07:62
  TRACK 12 AUDIO
    TITLE "0:"
    INDEX 01 00:08:66
  TRACK 13 AUDIO
    TITLE "4:cjc137_5091"
    INDEX 01 00:10:00
  TRACK 14 AUDIO
    TITLE "0:"
    INDEX 01 00:11:11
  TRACK 15 AUDIO
    TITLE "6:cjc137_5092"
    INDEX 01 00:11:19
  TRACK 16 AUDIO
    TITLE "0:"
    INDEX 01 00:12:69
  TRACK 17 AUDIO
    TITLE "5:cjc137_5093"
    INDEX 01 00:12:73
  TRACK 18 AUDIO
    TITLE "0:"
    INDEX 01 00:14:13
  TRACK 19 AUDIO
    TITLE "4:cjc137_5094"
    INDEX 01 00:15:19
  TRACK 20 AUDIO
    TITLE "0:"
    INDEX 01 00:16:32
  TRACK 21 AUDIO
    TITLE "6:cjc137_5095"
    INDEX 01 00:16:38
  TRACK 22 AUDIO
    TITLE "0:"
    INDEX 01 00:17:39
  TRACK 23 AUDIO
    TITLE "5:cjc137_5096"
    INDEX 01 00:17:47
  TRACK 24 AUDIO
    TITLE "0:"
    INDEX 01 00:18:60
  TRACK 25 AUDIO
    TITLE "4:cjc137_5097"
    INDEX 01 00:19:69
  TRACK 26 AUDIO
    TITLE "0:"
    INDEX 01 00:20:59
  TRACK 27 AUDIO
    TITLE "6:cjc137_5098"
    INDEX 01 00:20:69
  TRACK 28 AUDIO
    TITLE "0:"
    INDEX 01 00:21:66
  TRACK 29 AUDIO
    TITLE "5:cjc137_5099"
    INDEX 01 00:21:70
  TRACK 30 AUDIO
    TITLE "0:"
    INDEX 01 00:22:62
  TRACK 31 AUDIO
    TITLE "4:cjc137_5100"
    INDEX 01 00:24:00
  TRACK 32 AUDIO
    TITLE "0:"
    INDEX 01 00:25:07
  TRACK 33 AUDIO
    TITLE "6:cjc137_5101"
    INDEX 01 00:25:15
  TRACK 34 AUDIO
    TITLE "0:"
    INDEX 01 00:26:28
  TRACK 35 AUDIO
    TITLE "5:cjc137_5102"
    INDEX 01 00:26:34
  TRACK 36 AUDIO
    TITLE "0:"
    INDEX 01 00:27:41
  TRACK 37 AUDIO
    TITLE "4:cjc137_5103"
    INDEX 01 00:28:51
  TRACK 38 AUDIO
    TITLE "0:"
    INDEX 01 00:30:06
  TRACK 39 AUDIO
    TITLE "6:cjc137_5104"
    INDEX 01 00:30:14
  TRACK 40 AUDIO
    TITLE "0:"
    INDEX 01 00:31:37
  TRACK 41 AUDIO
    TITLE "5:cjc137_5105"
    INDEX 01 00:31:43
  TRACK 42 AUDIO
    TITLE "0:"
    INDEX 01 00:32:72
  TRACK 43 AUDIO
    TITLE "4:cjc137_5106"
    INDEX 01 00:34:10
  TRACK 44 AUDIO
    TITLE "0:"
    INDEX 01 00:35:41
  TRACK 45 AUDIO
    TITLE "6:cjc137_5107"
    INDEX 01 00:35:47
  TRACK 46 AUDIO
    TITLE "0:"
    INDEX 01 00:37:03
  TRACK 47 AUDIO
    TITLE "5:cjc137_5108"
    INDEX 01 00:37:08
  TRACK 48 AUDIO
    TITLE "0:"
    INDEX 01 00:38:41
  TRACK 49 AUDIO
    TITLE "4:cjc137_5109"
    INDEX 01 00:39:49
  TRACK 50 AUDIO
    TITLE "0:"
    INDEX 01 00:40:66
  TRACK 51 AUDIO
    TITLE "6:cjc137_5110"
    INDEX 01 00:40:72
  TRACK 52 AUDIO
    TITLE "0:"
    INDEX 01 00:42:29
  TRACK 53 AUDIO
    TITLE "5:cjc137_5111"
    INDEX 01 00:42:33
  TRACK 54 AUDIO
    TITLE "0:"
    INDEX 01 00:43:52
  TRACK 55 AUDIO
    TITLE "4:cjc137_5112"
    INDEX 01 00:44:61
  TRACK 56 AUDIO
    TITLE "0:"
    INDEX 01 00:46:23
  TRACK 57 AUDIO
    TITLE "6:cjc137_5113"
    INDEX 01 00:46:37
  TRACK 58 AUDIO
    TITLE "0:"
    INDEX 01 00:47:50
  TRACK 59 AUDIO
    TITLE "5:cjc137_5114"
    INDEX 01 00:47:60
  TRACK 60 AUDIO
    TITLE "0:"
    INDEX 01 00:49:21
  TRACK 61 AUDIO
    TITLE "4:cjc137_5115"
    INDEX 01 00:50:35
  TRACK 62 AUDIO
    TITLE "0:"
    INDEX 01 00:51:44
  TRACK 63 AUDIO
    TITLE "6:cjc137_5116"
    INDEX 01 00:51:54
  TRACK 64 AUDIO
    TITLE "0:"
    INDEX 01 00:52:59
  TRACK 65 AUDIO
    TITLE "5:cjc137_5117"
    INDEX 01 00:52:67
  TRACK 66 AUDIO
    TITLE "0:"
    INDEX 01 00:54:03
  TRACK 67 AUDIO
    TITLE "4:cjc137_5118"
    INDEX 01 00:55:10
  TRACK 68 AUDIO
    TITLE "0:"
    INDEX 01 00:56:29
  TRACK 69 AUDIO
    TITLE "6:cjc137_5119"
    INDEX 01 00:56:35
  TRACK 70 AUDIO
    TITLE "0:"
    INDEX 01 00:57:33
  TRACK 71 AUDIO
    TITLE "5:cjc137_5120"
    INDEX 01 00:57:39
  TRACK 72 AUDIO
    TITLE "0:"
    INDEX 01 00:58:56
  TRACK 73 AUDIO
    TITLE "4:cjc137_5121"
    INDEX 01 00:59:65
  TRACK 74 AUDIO
    TITLE "0:"
    INDEX 01 01:01:17
  TRACK 75 AUDIO
    TITLE "6:cjc137_5122"
    INDEX 01 01:01:23
  TRACK 76 AUDIO
    TITLE "0:"
    INDEX 01 01:02:14
  TRACK 77 AUDIO
    TITLE "5:cjc137_5123"
    INDEX 01 01:02:18
  TRACK 78 AUDIO
    TITLE "0:"
    INDEX 01 01:03:45
  TRACK 79 AUDIO
    TITLE "4:cjc137_5124"
    INDEX 01 01:04:52
  TRACK 80 AUDIO
    TITLE "0:"
    INDEX 01 01:06:02
  TRACK 81 AUDIO
    TITLE "6:cjc137_5125"
    INDEX 01 01:06:08
  TRACK 82 AUDIO
    TITLE "0:"
    INDEX 01 01:07:15
  TRACK 83 AUDIO
    TITLE "5:cjc137_5126"
    INDEX 01 01:07:19
  TRACK 84 AUDIO
    TITLE "0:"
    INDEX 01 01:08:44
